<svg width="48" height="48" viewBox="0 0 48 48" fill="none" xmlns="http://www.w3.org/2000/svg">
<path fill-rule="evenodd" clip-rule="evenodd" d="M26.4038 12.918L26.5223 16.5H28.5C29.3288 16.5 30 17.1712 30 18C30 18.3975 29.8418 18.7793 29.5605 19.0605C29.2793 19.3418 28.8975 19.5 28.5 19.5H26.6198C26.6198 19.5 26.9228 28.8593 27 31.5C27.051 33.4433 28.2218 35.2163 30 36C32.6963 37.1685 35.118 34.9132 37.5 32.25L34.5 30.75L41.25 28.5C41.2845 37.4618 35.0963 43.683 29.25 42.75C25.5683 42.1627 24 45 24 45C24 45 22.4318 42.1627 18.75 42.75C12.9038 43.683 6.71553 37.4618 6.75002 28.5L13.5 30.75L10.5 32.25C12.882 34.9132 15.3045 37.1685 18 36C19.779 35.2163 20.949 33.4433 21 31.5C21.078 28.8593 21.3803 19.5 21.3803 19.5H19.5C19.1025 19.5 18.7208 19.3418 18.4395 19.0605C18.1583 18.7793 18 18.3975 18 18C18 17.1712 18.672 16.5 19.5 16.5H21.4778L21.5963 12.918C19.9065 12.045 18.75 10.2818 18.75 8.25C18.75 5.35275 21.1028 3 24 3C26.8973 3 29.25 5.35275 29.25 8.25C29.25 10.2818 28.0935 12.045 26.4038 12.918ZM24 6C22.758 6 21.75 7.008 21.75 8.25C21.75 9.492 22.758 10.5 24 10.5C25.242 10.5 26.25 9.492 26.25 8.25C26.25 7.008 25.242 6 24 6Z" fill="white"/>
</svg>
